<svg width="196.000000" height="154.000000" viewBox="0 0 196 154" fill="none" xmlns="http://www.w3.org/2000/svg" xmlns:xlink="http://www.w3.org/1999/xlink">
	<desc>
			Created with Pixso.
	</desc>
	<defs/>
	<circle id="Ellipse 3" cx="3.500000" cy="3.500000" r="3.500000" fill="#DC7000" fill-opacity="0.350000"/>
	<circle id="Ellipse 4" cx="24.500000" cy="3.500000" r="3.500000" fill="#DC7000" fill-opacity="0.350000"/>
	<circle id="Ellipse 5" cx="45.500000" cy="3.500000" r="3.500000" fill="#DC7000" fill-opacity="0.350000"/>
	<circle id="Ellipse 6" cx="66.500000" cy="3.500000" r="3.500000" fill="#DC7000" fill-opacity="0.350000"/>
	<circle id="Ellipse 7" cx="87.500000" cy="3.500000" r="3.500000" fill="#DC7000" fill-opacity="0.350000"/>
	<circle id="Ellipse 8" cx="108.500000" cy="3.500000" r="3.500000" fill="#DC7000" fill-opacity="0.350000"/>
	<circle id="Ellipse 9" cx="129.500000" cy="3.500000" r="3.500000" fill="#DC7000" fill-opacity="0.350000"/>
	<circle id="Ellipse 10" cx="150.500000" cy="3.500000" r="3.500000" fill="#DC7000" fill-opacity="0.350000"/>
	<circle id="Ellipse 11" cx="171.500000" cy="3.500000" r="3.500000" fill="#DC7000" fill-opacity="0.350000"/>
	<circle id="Ellipse 12" cx="192.500000" cy="3.500000" r="3.500000" fill="#DC7000" fill-opacity="0.350000"/>
	<circle id="Ellipse 3" cx="3.500000" cy="24.500000" r="3.500000" fill="#DC7000" fill-opacity="0.350000"/>
	<circle id="Ellipse 4" cx="24.500000" cy="24.500000" r="3.500000" fill="#DC7000" fill-opacity="0.350000"/>
	<circle id="Ellipse 5" cx="45.500000" cy="24.500000" r="3.500000" fill="#DC7000" fill-opacity="0.350000"/>
	<circle id="Ellipse 6" cx="66.500000" cy="24.500000" r="3.500000" fill="#DC7000" fill-opacity="0.350000"/>
	<circle id="Ellipse 7" cx="87.500000" cy="24.500000" r="3.500000" fill="#DC7000" fill-opacity="0.350000"/>
	<circle id="Ellipse 8" cx="108.500000" cy="24.500000" r="3.500000" fill="#DC7000" fill-opacity="0.350000"/>
	<circle id="Ellipse 9" cx="129.500000" cy="24.500000" r="3.500000" fill="#DC7000" fill-opacity="0.350000"/>
	<circle id="Ellipse 10" cx="150.500000" cy="24.500000" r="3.500000" fill="#DC7000" fill-opacity="0.350000"/>
	<circle id="Ellipse 11" cx="171.500000" cy="24.500000" r="3.500000" fill="#DC7000" fill-opacity="0.350000"/>
	<circle id="Ellipse 12" cx="192.500000" cy="24.500000" r="3.500000" fill="#DC7000" fill-opacity="0.350000"/>
	<circle id="Ellipse 3" cx="3.500000" cy="45.500000" r="3.500000" fill="#DC7000" fill-opacity="0.350000"/>
	<circle id="Ellipse 4" cx="24.500000" cy="45.500000" r="3.500000" fill="#DC7000" fill-opacity="0.350000"/>
	<circle id="Ellipse 5" cx="45.500000" cy="45.500000" r="3.500000" fill="#DC7000" fill-opacity="0.350000"/>
	<circle id="Ellipse 6" cx="66.500000" cy="45.500000" r="3.500000" fill="#DC7000" fill-opacity="0.350000"/>
	<circle id="Ellipse 7" cx="87.500000" cy="45.500000" r="3.500000" fill="#DC7000" fill-opacity="0.350000"/>
	<circle id="Ellipse 8" cx="108.500000" cy="45.500000" r="3.500000" fill="#DC7000" fill-opacity="0.350000"/>
	<circle id="Ellipse 9" cx="129.500000" cy="45.500000" r="3.500000" fill="#DC7000" fill-opacity="0.350000"/>
	<circle id="Ellipse 10" cx="150.500000" cy="45.500000" r="3.500000" fill="#DC7000" fill-opacity="0.350000"/>
	<circle id="Ellipse 11" cx="171.500000" cy="45.500000" r="3.500000" fill="#DC7000" fill-opacity="0.350000"/>
	<circle id="Ellipse 12" cx="192.500000" cy="45.500000" r="3.500000" fill="#DC7000" fill-opacity="0.350000"/>
	<circle id="Ellipse 3" cx="3.500000" cy="66.500000" r="3.500000" fill="#DC7000" fill-opacity="0.350000"/>
	<circle id="Ellipse 4" cx="24.500000" cy="66.500000" r="3.500000" fill="#DC7000" fill-opacity="0.350000"/>
	<circle id="Ellipse 5" cx="45.500000" cy="66.500000" r="3.500000" fill="#DC7000" fill-opacity="0.350000"/>
	<circle id="Ellipse 6" cx="66.500000" cy="66.500000" r="3.500000" fill="#DC7000" fill-opacity="0.350000"/>
	<circle id="Ellipse 7" cx="87.500000" cy="66.500000" r="3.500000" fill="#DC7000" fill-opacity="0.350000"/>
	<circle id="Ellipse 8" cx="108.500000" cy="66.500000" r="3.500000" fill="#DC7000" fill-opacity="0.350000"/>
	<circle id="Ellipse 9" cx="129.500000" cy="66.500000" r="3.500000" fill="#DC7000" fill-opacity="0.350000"/>
	<circle id="Ellipse 10" cx="150.500000" cy="66.500000" r="3.500000" fill="#DC7000" fill-opacity="0.350000"/>
	<circle id="Ellipse 11" cx="171.500000" cy="66.500000" r="3.500000" fill="#DC7000" fill-opacity="0.350000"/>
	<circle id="Ellipse 12" cx="192.500000" cy="66.500000" r="3.500000" fill="#DC7000" fill-opacity="0.350000"/>
	<circle id="Ellipse 3" cx="3.500000" cy="87.500000" r="3.500000" fill="#DC7000" fill-opacity="0.350000"/>
	<circle id="Ellipse 4" cx="24.500000" cy="87.500000" r="3.500000" fill="#DC7000" fill-opacity="0.350000"/>
	<circle id="Ellipse 5" cx="45.500000" cy="87.500000" r="3.500000" fill="#DC7000" fill-opacity="0.350000"/>
	<circle id="Ellipse 6" cx="66.500000" cy="87.500000" r="3.500000" fill="#DC7000" fill-opacity="0.350000"/>
	<circle id="Ellipse 7" cx="87.500000" cy="87.500000" r="3.500000" fill="#DC7000" fill-opacity="0.350000"/>
	<circle id="Ellipse 8" cx="108.500000" cy="87.500000" r="3.500000" fill="#DC7000" fill-opacity="0.350000"/>
	<circle id="Ellipse 9" cx="129.500000" cy="87.500000" r="3.500000" fill="#DC7000" fill-opacity="0.350000"/>
	<circle id="Ellipse 10" cx="150.500000" cy="87.500000" r="3.500000" fill="#DC7000" fill-opacity="0.350000"/>
	<circle id="Ellipse 11" cx="171.500000" cy="87.500000" r="3.500000" fill="#DC7000" fill-opacity="0.350000"/>
	<circle id="Ellipse 12" cx="192.500000" cy="87.500000" r="3.500000" fill="#DC7000" fill-opacity="0.350000"/>
	<circle id="Ellipse 3" cx="3.500000" cy="108.500000" r="3.500000" fill="#DC7000" fill-opacity="0.350000"/>
	<circle id="Ellipse 4" cx="24.500000" cy="108.500000" r="3.500000" fill="#DC7000" fill-opacity="0.350000"/>
	<circle id="Ellipse 5" cx="45.500000" cy="108.500000" r="3.500000" fill="#DC7000" fill-opacity="0.350000"/>
	<circle id="Ellipse 6" cx="66.500000" cy="108.500000" r="3.500000" fill="#DC7000" fill-opacity="0.350000"/>
	<circle id="Ellipse 7" cx="87.500000" cy="108.500000" r="3.500000" fill="#DC7000" fill-opacity="0.350000"/>
	<circle id="Ellipse 8" cx="108.500000" cy="108.500000" r="3.500000" fill="#DC7000" fill-opacity="0.350000"/>
	<circle id="Ellipse 9" cx="129.500000" cy="108.500000" r="3.500000" fill="#DC7000" fill-opacity="0.350000"/>
	<circle id="Ellipse 10" cx="150.500000" cy="108.500000" r="3.500000" fill="#DC7000" fill-opacity="0.350000"/>
	<circle id="Ellipse 11" cx="171.500000" cy="108.500000" r="3.500000" fill="#DC7000" fill-opacity="0.350000"/>
	<circle id="Ellipse 12" cx="192.500000" cy="108.500000" r="3.500000" fill="#DC7000" fill-opacity="0.350000"/>
	<circle id="Ellipse 3" cx="3.500000" cy="129.500000" r="3.500000" fill="#DC7000" fill-opacity="0.350000"/>
	<circle id="Ellipse 4" cx="24.500000" cy="129.500000" r="3.500000" fill="#DC7000" fill-opacity="0.350000"/>
	<circle id="Ellipse 5" cx="45.500000" cy="129.500000" r="3.500000" fill="#DC7000" fill-opacity="0.350000"/>
	<circle id="Ellipse 6" cx="66.500000" cy="129.500000" r="3.500000" fill="#DC7000" fill-opacity="0.350000"/>
	<circle id="Ellipse 7" cx="87.500000" cy="129.500000" r="3.500000" fill="#DC7000" fill-opacity="0.350000"/>
	<circle id="Ellipse 8" cx="108.500000" cy="129.500000" r="3.500000" fill="#DC7000" fill-opacity="0.350000"/>
	<circle id="Ellipse 9" cx="129.500000" cy="129.500000" r="3.500000" fill="#DC7000" fill-opacity="0.350000"/>
	<circle id="Ellipse 10" cx="150.500000" cy="129.500000" r="3.500000" fill="#DC7000" fill-opacity="0.350000"/>
	<circle id="Ellipse 11" cx="171.500000" cy="129.500000" r="3.500000" fill="#DC7000" fill-opacity="0.350000"/>
	<circle id="Ellipse 12" cx="192.500000" cy="129.500000" r="3.500000" fill="#DC7000" fill-opacity="0.350000"/>
	<circle id="Ellipse 3" cx="3.500000" cy="129.500000" r="3.500000" fill="#DC7000" fill-opacity="0.350000"/>
	<circle id="Ellipse 4" cx="24.500000" cy="129.500000" r="3.500000" fill="#DC7000" fill-opacity="0.350000"/>
	<circle id="Ellipse 5" cx="45.500000" cy="129.500000" r="3.500000" fill="#DC7000" fill-opacity="0.350000"/>
	<circle id="Ellipse 6" cx="66.500000" cy="129.500000" r="3.500000" fill="#DC7000" fill-opacity="0.350000"/>
	<circle id="Ellipse 7" cx="87.500000" cy="129.500000" r="3.500000" fill="#DC7000" fill-opacity="0.350000"/>
	<circle id="Ellipse 8" cx="108.500000" cy="129.500000" r="3.500000" fill="#DC7000" fill-opacity="0.350000"/>
	<circle id="Ellipse 9" cx="129.500000" cy="129.500000" r="3.500000" fill="#DC7000" fill-opacity="0.350000"/>
	<circle id="Ellipse 10" cx="150.500000" cy="129.500000" r="3.500000" fill="#DC7000" fill-opacity="0.350000"/>
	<circle id="Ellipse 11" cx="171.500000" cy="129.500000" r="3.500000" fill="#DC7000" fill-opacity="0.350000"/>
	<circle id="Ellipse 12" cx="192.500000" cy="129.500000" r="3.500000" fill="#DC7000" fill-opacity="0.350000"/>
	<circle id="Ellipse 3" cx="3.500000" cy="150.500000" r="3.500000" fill="#DC7000" fill-opacity="0.350000"/>
	<circle id="Ellipse 4" cx="24.500000" cy="150.500000" r="3.500000" fill="#DC7000" fill-opacity="0.350000"/>
	<circle id="Ellipse 5" cx="45.500000" cy="150.500000" r="3.500000" fill="#DC7000" fill-opacity="0.350000"/>
	<circle id="Ellipse 6" cx="66.500000" cy="150.500000" r="3.500000" fill="#DC7000" fill-opacity="0.350000"/>
	<circle id="Ellipse 7" cx="87.500000" cy="150.500000" r="3.500000" fill="#DC7000" fill-opacity="0.350000"/>
	<circle id="Ellipse 8" cx="108.500000" cy="150.500000" r="3.500000" fill="#DC7000" fill-opacity="0.350000"/>
	<circle id="Ellipse 9" cx="129.500000" cy="150.500000" r="3.500000" fill="#DC7000" fill-opacity="0.350000"/>
	<circle id="Ellipse 10" cx="150.500000" cy="150.500000" r="3.500000" fill="#DC7000" fill-opacity="0.350000"/>
	<circle id="Ellipse 11" cx="171.500000" cy="150.500000" r="3.500000" fill="#DC7000" fill-opacity="0.350000"/>
	<circle id="Ellipse 12" cx="192.500000" cy="150.500000" r="3.500000" fill="#DC7000" fill-opacity="0.350000"/>
</svg>
