<svg width="29.000000" height="29.000000" viewBox="0 0 29 29" fill="none" xmlns="http://www.w3.org/2000/svg" xmlns:xlink="http://www.w3.org/1999/xlink">
	<desc>
			Created with Pixso.
	</desc>
	<defs>
		<clipPath id="clip1_925">
			<rect id="gps 1" rx="0.000000" width="28.000000" height="28.000000" transform="translate(0.500000 0.500000)" fill="white" fill-opacity="0"/>
		</clipPath>
	</defs>
	<rect id="gps 1" rx="0.000000" width="28.000000" height="28.000000" transform="translate(0.500000 0.500000)" fill="#FFFFFF" fill-opacity="0"/>
	<g clip-path="url(#clip1_925)">
		<path id="Vector" d="M14.25 0.89C9.04 0.89 4.8 5.13 4.8 10.34C4.8 16.89 14.26 28.07 14.26 28.07C14.26 28.07 23.7 16.56 23.7 10.34C23.7 5.13 19.46 0.89 14.25 0.89ZM17.1 13.1C16.31 13.89 15.28 14.28 14.25 14.28C13.22 14.28 12.18 13.89 11.4 13.1C9.83 11.53 9.83 8.97 11.4 7.4C12.16 6.64 13.17 6.22 14.25 6.22C15.33 6.22 16.34 6.64 17.1 7.4C18.67 8.97 18.67 11.53 17.1 13.1Z" fill="#FFFFFF" fill-opacity="1.000000" fill-rule="nonzero"/>
	</g>
</svg>
